<?xml version="1.0" encoding="utf-8"?>
<!-- Generator: Adobe Illustrator 16.0.0, SVG Export Plug-In . SVG Version: 6.00 Build 0)  -->
<!DOCTYPE svg PUBLIC "-//W3C//DTD SVG 1.1//EN" "http://www.w3.org/Graphics/SVG/1.1/DTD/svg11.dtd">
<svg version="1.1" id="Capa_1" xmlns="http://www.w3.org/2000/svg" xmlns:xlink="http://www.w3.org/1999/xlink" x="0px" y="0px"
	 width="22.945px" height="17.182px" viewBox="0 0 22.945 17.182" enable-background="new 0 0 22.945 17.182" xml:space="preserve">
<g>
	<g>
		<path fill="#FFFFFF" d="M20.223,17.182H2.72c-1.5,0-2.72-1.22-2.72-2.72V2.722C0,1.221,1.22,0,2.72,0h17.503
			c1.501,0,2.722,1.221,2.722,2.722v11.74C22.945,15.962,21.724,17.182,20.223,17.182z M2.72,1.6C2.103,1.6,1.6,2.104,1.6,2.722
			v11.74c0,0.618,0.503,1.121,1.12,1.121h17.503c0.618,0,1.121-0.503,1.121-1.121V2.722c0-0.618-0.503-1.122-1.121-1.122H2.72z"/>
	</g>
	<g>
		<rect x="0.801" y="4.43" fill="#FFFFFF" width="21.343" height="4.482"/>
	</g>
</g>
</svg>
