<?xml version="1.0" encoding="utf-8"?>
<!-- Generator: Adobe Illustrator 16.0.0, SVG Export Plug-In . SVG Version: 6.00 Build 0)  -->
<!DOCTYPE svg PUBLIC "-//W3C//DTD SVG 1.1//EN" "http://www.w3.org/Graphics/SVG/1.1/DTD/svg11.dtd">
<svg version="1.1" id="Capa_1" xmlns="http://www.w3.org/2000/svg" xmlns:xlink="http://www.w3.org/1999/xlink" x="0px" y="0px"
	 width="19.969px" height="19.969px" viewBox="0 0 19.969 19.969" enable-background="new 0 0 19.969 19.969" xml:space="preserve">
<g>
	<g>
		<path fill="#FFFFFF" d="M7.319,5.325C3.285,5.325,0,8.61,0,12.647s3.285,7.321,7.319,7.321c4.039,0,7.322-3.284,7.322-7.321
			S11.358,5.325,7.319,5.325z M7.319,18.239c-3.082,0-5.589-2.509-5.589-5.592c0-3.083,2.508-5.591,5.589-5.591
			c3.083,0,5.593,2.509,5.593,5.591C12.913,15.73,10.403,18.239,7.319,18.239z"/>
	</g>
	<g>
		<path fill="#FFFFFF" d="M13.168,0c-2.768,0-5.152,1.66-6.213,4.037c0.121-0.005,0.242-0.008,0.364-0.008
			c0.518,0,1.027,0.045,1.519,0.134c0.894-1.458,2.498-2.432,4.33-2.432c2.796,0,5.07,2.275,5.07,5.071
			c0,1.83-0.975,3.437-2.432,4.328c0.088,0.494,0.132,1.001,0.132,1.519c0,0.122-0.001,0.246-0.007,0.367
			c2.376-1.062,4.037-3.447,4.037-6.213C19.969,3.051,16.917,0,13.168,0z"/>
	</g>
	<g>
		<path fill="#FFFFFF" d="M7.971,11.81c-0.336-0.115-0.597-0.215-0.785-0.301c-0.189-0.087-0.323-0.164-0.398-0.235
			c-0.077-0.069-0.116-0.159-0.116-0.266c0-0.124,0.053-0.218,0.16-0.281c0.104-0.063,0.288-0.095,0.551-0.095
			c0.547,0,1.16,0.152,1.84,0.46l0.583-1.395C9.146,9.414,8.491,9.255,7.845,9.219V8.56H6.833v0.669
			C6.143,9.3,5.625,9.487,5.278,9.791c-0.346,0.303-0.519,0.724-0.519,1.26c0,0.353,0.058,0.646,0.174,0.882
			c0.115,0.238,0.301,0.449,0.554,0.642c0.256,0.19,0.586,0.362,1.002,0.515c0.367,0.135,0.661,0.248,0.878,0.343
			c0.215,0.095,0.371,0.18,0.462,0.254c0.095,0.075,0.14,0.166,0.14,0.273c0,0.156-0.065,0.269-0.193,0.336
			c-0.128,0.066-0.332,0.1-0.609,0.1c-0.333,0-0.723-0.064-1.168-0.192c-0.441-0.129-0.852-0.29-1.229-0.481v1.622
			c0.662,0.286,1.346,0.446,2.062,0.479v0.913h1.012v-0.942c0.665-0.081,1.171-0.294,1.517-0.637
			c0.348-0.342,0.521-0.786,0.521-1.333c0-0.486-0.147-0.883-0.446-1.191C9.14,12.324,8.65,12.051,7.971,11.81z"/>
	</g>
</g>
</svg>
