<?xml version="1.0" encoding="utf-8"?>
<!-- Generator: Adobe Illustrator 16.0.0, SVG Export Plug-In . SVG Version: 6.00 Build 0)  -->
<!DOCTYPE svg PUBLIC "-//W3C//DTD SVG 1.1//EN" "http://www.w3.org/Graphics/SVG/1.1/DTD/svg11.dtd">
<svg version="1.1" id="Capa_1" xmlns="http://www.w3.org/2000/svg" xmlns:xlink="http://www.w3.org/1999/xlink" x="0px" y="0px"
	 width="163.728px" height="67.596px" viewBox="0 0 163.728 67.596" enable-background="new 0 0 163.728 67.596"
	 xml:space="preserve">
<g>
	<g>
		<path fill="#FFFFFF" d="M158.131,19.239v7.92c0,3.421-1.47,5.129-4.405,5.129c-1.309,0-2.445-0.524-3.408-1.581
			c-0.969-1.054-1.451-2.213-1.451-3.473c0-1.096,0.42-1.986,1.259-2.672c0.976-0.794,2.396-1.191,4.267-1.191v-4.15
			c-3.476,0-5.267-1.042-5.376-3.125c-0.028-0.191-0.041-0.37-0.041-0.536c0-1.616,0.518-2.724,1.561-3.328
			c0.791-0.494,2.077-0.739,3.856-0.739V6.847c-2.994,0-5.504,0.618-7.533,1.852c-2.414,1.427-3.621,3.498-3.621,6.215
			c0,2.937,1.156,4.994,3.471,6.173c-1.022,0.468-1.856,1.373-2.502,2.717c-0.646,1.345-0.969,2.731-0.969,4.157
			c0,2.745,1.093,4.98,3.284,6.709c2.024,1.619,4.448,2.428,7.269,2.428c2.734,0,5.024-0.796,6.854-2.386
			c2.055-1.811,3.083-4.32,3.083-7.532v-7.943H158.131z"/>
		<path fill="#FFFFFF" d="M104.443,14.306l3.595-1.695c-18.45-16.414-44.326-16.779-61.14-1.247l2.486,2.692
			C64.799-0.183,87.01-0.435,104.443,14.306z"/>
		<polygon fill="#FFFFFF" points="141.422,41.956 145.075,41.956 146.379,38.218 142.728,38.218 		"/>
		<path fill="#FFFFFF" d="M26.322,21.356c1.148-1.255,2.401-1.867,3.823-1.867h0.458v-3.405h-0.458c-1.558,0-3.053,0.595-4.456,1.77
			l-0.436-1.77h-2.837V33.97h3.906V21.356z"/>
		<path fill="#FFFFFF" d="M41.054,33.954c5.666,0,8.538-3.004,8.538-8.927c0-5.933-2.872-8.942-8.538-8.942s-8.54,3.009-8.538,8.961
			C32.763,30.957,35.634,33.954,41.054,33.954z M41.054,19.424c3.117,0,4.631,1.812,4.631,5.538c0,3.812-1.514,5.666-4.631,5.666
			c-3.117,0-4.633-1.854-4.633-5.666C36.421,21.236,37.937,19.424,41.054,19.424z"/>
		<path fill="#FFFFFF" d="M66.204,33.473l0.355-0.082v-3.364l-0.56,0.129c-1.362,0.314-2.742,0.473-4.1,0.473
			c-4.096,0-6.086-1.938-6.086-5.925c0-3.552,1.991-5.279,6.086-5.279c1.358,0,2.736,0.159,4.1,0.473l0.56,0.129v-3.364
			l-0.355-0.082c-1.427-0.329-2.985-0.496-4.627-0.496c-6.417,0-9.671,2.9-9.671,8.619c0,6.149,3.254,9.266,9.671,9.266
			C63.219,33.97,64.777,33.802,66.204,33.473z"/>
		<path fill="#FFFFFF" d="M83.794,25.957c0.57-3.538,0.149-6.164-1.249-7.806c-1.168-1.371-3.016-2.066-5.488-2.066
			c-5.699,0-8.587,2.943-8.587,8.749c0,6.063,3.042,9.137,9.04,9.137c2.168,0,4.037-0.167,5.559-0.496l0.36-0.079v-3.36
			l-0.553,0.119c-1.459,0.316-2.938,0.475-4.396,0.475c-3.906,0-5.902-1.403-6.089-4.287h11.343L83.794,25.957z M72.42,22.938
			c0.302-2.416,1.631-3.545,4.15-3.545c1.254,0,2.183,0.309,2.766,0.921c0.546,0.576,0.825,1.458,0.828,2.624H72.42z"/>
		<path fill="#FFFFFF" d="M95.298,23.195h-2.425c-2.269,0-2.528-1.03-2.528-1.805c0-1.304,1.433-1.966,4.26-1.966
			c1.75,0,3.566,0.318,5.395,0.945l0.606,0.208v-3.572l-0.332-0.095c-1.916-0.548-3.824-0.826-5.669-0.826
			c-5.205,0-7.844,1.786-7.844,5.306c0,4.52,3.325,5.468,6.112,5.468h2.425c1.959,0,2.21,0.964,2.21,1.804
			c0,0.486,0,1.966-3.6,1.966c-1.975,0-3.904-0.317-5.732-0.944l-0.607-0.208v3.572l0.333,0.094
			c1.917,0.548,3.938,0.826,6.007,0.826c4.981,0,7.505-1.786,7.505-5.307C101.413,24.145,98.088,23.195,95.298,23.195z"/>
		<path fill="#FFFFFF" d="M112.268,16.084c-5.667,0-8.54,3.009-8.54,8.961c0.249,5.911,3.122,8.908,8.54,8.908
			c5.664,0,8.538-3.004,8.538-8.927C120.806,19.093,117.932,16.084,112.268,16.084z M112.268,30.628
			c-3.119,0-4.634-1.854-4.634-5.666c0-3.727,1.515-5.538,4.634-5.538c3.117,0,4.63,1.812,4.63,5.538
			C116.897,28.775,115.385,30.628,112.268,30.628z"/>
		<path fill="#FFFFFF" d="M131.656,23.195h-2.424c-2.268,0-2.531-1.03-2.531-1.805c0-1.304,1.434-1.966,4.26-1.966
			c1.751,0,3.566,0.318,5.396,0.945l0.606,0.208v-3.572l-0.331-0.095c-1.92-0.548-3.827-0.826-5.672-0.826
			c-5.203,0-7.842,1.786-7.842,5.306c0,4.52,3.323,5.468,6.113,5.468h2.424c1.958,0,2.21,0.964,2.21,1.804
			c0,0.486,0,1.966-3.6,1.966c-1.975,0-3.904-0.317-5.734-0.944l-0.606-0.208v3.572l0.332,0.094
			c1.919,0.548,3.941,0.826,6.009,0.826c4.98,0,7.505-1.786,7.505-5.307C137.771,24.145,134.446,23.195,131.656,23.195z"/>
		<polygon fill="#FFFFFF" points="1.129,40.771 8.402,40.771 8.402,61.455 12.309,61.455 12.309,40.771 19.579,40.771 
			19.579,37.429 1.129,37.429 		"/>
		<path fill="#FFFFFF" d="M28.866,43.569c-5.7,0-8.588,2.946-8.588,8.75c0,6.062,3.041,9.136,9.039,9.136
			c2.168,0,4.039-0.166,5.56-0.495l0.361-0.078v-3.361l-0.555,0.119c-1.46,0.315-2.937,0.475-4.396,0.475
			c-3.906,0-5.902-1.403-6.088-4.287h11.342l0.062-0.385c0.57-3.537,0.149-6.165-1.25-7.806
			C33.185,44.265,31.34,43.569,28.866,43.569z M24.229,50.421c0.3-2.414,1.63-3.542,4.15-3.542c1.253,0,2.183,0.31,2.765,0.92
			c0.547,0.576,0.825,1.456,0.829,2.622H24.229z"/>
		<path fill="#FFFFFF" d="M48.241,43.569c-6.417,0-9.671,2.901-9.671,8.62c0,6.148,3.254,9.266,9.671,9.266
			c1.643,0,3.201-0.167,4.627-0.496l0.354-0.083v-3.364l-0.56,0.129c-1.36,0.314-2.739,0.473-4.1,0.473
			c-4.095,0-6.086-1.937-6.086-5.925c0-3.552,1.991-5.278,6.086-5.278c1.359,0,2.738,0.159,4.1,0.473l0.56,0.129v-3.364
			l-0.354-0.082C51.44,43.738,49.884,43.569,48.241,43.569z"/>
		<path fill="#FFFFFF" d="M65.158,43.569c-1.977,0-3.967,0.632-5.917,1.879l-0.463-1.879h-2.836v17.885h3.906V48.869
			c1.404-1.257,2.892-1.894,4.423-1.894c2.255,0,3.307,1.056,3.307,3.325v11.155h3.905V50.347
			C71.482,45.915,69.296,43.569,65.158,43.569z"/>
		<path fill="#FFFFFF" d="M83.144,43.569c-5.666,0-8.539,3.01-8.539,8.961c0.249,5.912,3.123,8.908,8.539,8.908
			c5.665,0,8.539-3.003,8.539-8.927C91.683,46.579,88.809,43.569,83.144,43.569z M83.144,58.114c-3.116,0-4.633-1.853-4.633-5.666
			c0-3.728,1.517-5.538,4.633-5.538c3.118,0,4.634,1.811,4.634,5.538C87.777,56.261,86.262,58.114,83.144,58.114z"/>
		<rect x="94.805" y="37.429" fill="#FFFFFF" width="3.905" height="24.026"/>
		<path fill="#FFFFFF" d="M110.371,43.569c-5.665,0-8.539,3.01-8.539,8.961c0.25,5.912,3.122,8.908,8.539,8.908
			c5.665,0,8.539-3.003,8.539-8.927C118.91,46.579,116.036,43.569,110.371,43.569z M110.371,58.114
			c-3.116,0-4.632-1.853-4.632-5.666c0-3.728,1.516-5.538,4.632-5.538c3.118,0,4.633,1.811,4.633,5.538
			C115.004,56.261,113.489,58.114,110.371,58.114z"/>
		<path fill="#FFFFFF" d="M130.165,43.569c-5.932,0-8.939,2.978-8.939,8.846c0,5.998,2.86,9.039,8.504,9.039
			c1.279,0,2.502-0.201,3.646-0.598v0.14c0,1.399-0.449,3.26-4.323,3.26c-2.023,0-3.856-0.265-5.452-0.785l-0.599-0.196v3.385
			l0.312,0.104c1.656,0.552,3.575,0.832,5.705,0.832c5.484,0,8.265-2.22,8.265-6.6V44.353l-0.361-0.078
			C134.757,43.807,132.482,43.569,130.165,43.569z M133.376,57.249c-1.048,0.467-2.269,0.704-3.63,0.704
			c-3.138,0-4.663-1.821-4.663-5.57c0-3.639,1.62-5.409,4.955-5.409c1.295,0,2.416,0.099,3.338,0.294V57.249z"/>
		<rect x="141.212" y="43.542" fill="#FFFFFF" width="3.908" height="17.885"/>
		<path fill="#FFFFFF" d="M155.438,43.569c-1.78,0-3.628,0.279-5.492,0.828l-0.33,0.096v3.379l0.587-0.172
			c1.781-0.525,3.544-0.79,5.235-0.79c4.116,0,4.116,1.735,4.116,2.305v1.065c-1.161-0.164-2.494-0.246-3.97-0.246
			c-4.874,0-7.344,1.911-7.344,5.677c0,4.747,3.721,5.743,6.844,5.743c1.925,0,3.645-0.367,5.115-1.093l1.094,1.093h2.167V49.458
			C163.46,45.552,160.76,43.569,155.438,43.569z M159.554,57.007c-1.115,0.735-2.616,1.107-4.47,1.107
			c-2.632,0-2.935-1.398-2.935-2.45c0-0.983,0.354-2.29,3.435-2.29c1.548,0,2.882,0.085,3.97,0.253V57.007z"/>
		<path fill="#FFFFFF" d="M18.291,11.721c-1.196-1.246-3.103-1.878-5.667-1.878H2.307V33.87h3.907v-9.151
			c0.875-0.013,1.81-0.021,2.747-0.028c1.482-0.013,3.016-0.024,4.309-0.06c4.587-0.125,6.331-2.958,6.434-5.591l-0.026-3.101
			C19.748,14.174,19.281,12.754,18.291,11.721z M12.702,20.561c-1.392,0.068-3.033,0.075-4.769,0.083
			c-0.571,0.002-1.146,0.005-1.719,0.011v-7.423h6.135c2.2,0,3.225,0.872,3.228,2.747l0.025,1.949
			C15.469,19.994,13.953,20.5,12.702,20.561z"/>
	</g>
</g>
</svg>
