<?xml version="1.0" encoding="UTF-8" standalone="no"?>
<!-- Generator: Adobe Illustrator 16.0.0, SVG Export Plug-In . SVG Version: 6.00 Build 0)  -->

<svg
   xmlns:dc="http://purl.org/dc/elements/1.1/"
   xmlns:cc="http://creativecommons.org/ns#"
   xmlns:rdf="http://www.w3.org/1999/02/22-rdf-syntax-ns#"
   xmlns:svg="http://www.w3.org/2000/svg"
   xmlns="http://www.w3.org/2000/svg"
   xmlns:sodipodi="http://sodipodi.sourceforge.net/DTD/sodipodi-0.dtd"
   xmlns:inkscape="http://www.inkscape.org/namespaces/inkscape"
   version="1.1"
   id="Capa_1"
   x="0px"
   y="0px"
   width="152.038px"
   height="63.206px"
   viewBox="0 0 152.038 63.206"
   enable-background="new 0 0 152.038 63.206"
   xml:space="preserve"
   inkscape:version="0.91 r13725"
   sodipodi:docname="PYTT.SVG"
   inkscape:export-filename="D:\webs18\pyt\imag app\pytt.png"
   inkscape:export-xdpi="90"
   inkscape:export-ydpi="90"><metadata
     id="metadata56"><rdf:RDF><cc:Work
         rdf:about=""><dc:format>image/svg+xml</dc:format><dc:type
           rdf:resource="http://purl.org/dc/dcmitype/StillImage" /></cc:Work></rdf:RDF></metadata><defs
     id="defs54" /><sodipodi:namedview
     pagecolor="#ffffff"
     bordercolor="#666666"
     borderopacity="1"
     objecttolerance="10"
     gridtolerance="10"
     guidetolerance="10"
     inkscape:pageopacity="0"
     inkscape:pageshadow="2"
     inkscape:window-width="1920"
     inkscape:window-height="1028"
     id="namedview52"
     showgrid="false"
     inkscape:snap-grids="false"
     inkscape:snap-to-guides="false"
     inkscape:zoom="2.2954788"
     inkscape:cx="80.522267"
     inkscape:cy="31.603001"
     inkscape:window-x="-8"
     inkscape:window-y="-8"
     inkscape:window-maximized="1"
     inkscape:current-layer="Capa_1" /><g
     id="g4204"
     transform="matrix(0.20132508,0,0,0.20132508,83.737041,13.00181)"><path
       id="path7"
       d="m 332.77687,70.580354 c -1.3,4.7 -2.6,9.2 -3.9,13.8 -1.9,-0.6 -3.6,-1.2 -5.3,-1.8 -7.1,-2.3 -14.4,-3.5 -21.9,-3.3 -3.8,0.1 -7.5,0.3 -11.1,1.6 -1.7,0.6 -3.4,1.4 -4.8,2.4 -2.4,1.7 -3.2,4.2 -2.7,7 0.2,0.9 0.7,2 1.5,2.6 1.3,1.1 2.8,2.1 4.4,2.6 3.4,1.1 7,1.8 10.5,2.8 6.9,1.799996 13.7,3.599996 20.6,5.499996 3.3,0.9 6.2,2.7 8.7,4.9 4.7,4.1 7,9.3 6.8,15.6 -0.3,10.2 -5.6,17.2 -14.1,22.1 -4.5,2.6 -9.5,4 -14.7,4.6 -14.8,1.6 -29.3,-0.1 -43.3,-5.3 -0.2,-0.1 -0.5,-0.2 -0.7,-0.3 -0.1,-0.1 -0.2,-0.2 -0.5,-0.4 1.4,-4.4 2.8,-8.9 4.2,-13.6 0.8,0.3 1.4,0.5 2,0.8 9.9,4.2 20.2,5.8 30.9,4.9 2.7,-0.2 5.4,-0.8 8,-1.5 1.6,-0.4 3.1,-1.3 4.4,-2.3 2.7,-2 3.2,-4.9 2.7,-8 -0.2,-1.3 -1,-2.3 -2.1,-2.9 -1.6,-1 -3.2,-2.1 -4.9,-2.6 -4,-1.2 -8.1,-2.1 -12.2,-3.1 -5.3,-1.3 -10.6,-2.5 -15.8,-3.9 -3.1,-0.8 -6,-2.3 -8.7,-4.1 -5.6,-3.7 -8.4,-8.999996 -8.5,-15.699996 -0.1,-6.1 1.2,-11.7 5.1,-16.5 3.4,-4.1 7.8,-6.9 12.8,-8.7 5.3,-1.9 10.8,-2.7 16.3,-3 12,-0.6 23.6,1.2 34.8,5.3 0.4,0 0.8,0.2 1.5,0.5 z"
       style="clip-rule:evenodd;fill:#333333;fill-rule:evenodd"
       inkscape:connector-curvature="0" /><path
       id="path9"
       d="m 195.77687,113.78035 c 0,12.1 0,24.1 0,36.1 -1.6,0.4 -16.7,0.5 -19.9,0.2 -0.4,-1.4 -0.6,-112.999996 -0.2,-116.799996 1.4,-0.4 17.6,-0.5 20,-0.1 0,11.7 0,23.4 0,35.2 0,11.8 0,23.5 0,35.399996 1,0 1.2,-0.8 1.7,-1.3 8.6,-10.299996 17.3,-20.599996 25.9,-30.899996 1.5,-1.8 3.1,-3.7 4.6,-5.5 0.5,-0.6 1,-0.9 1.8,-0.9 6.6,0 13.2,0 19.8,0 0.2,0 0.3,0.1 0.8,0.2 -11.5,13 -23,25.9 -34.5,38.899996 13,14.7 25.9,29.3 38.9,44.1 -0.7,0.2 -1.2,0.4 -1.6,0.4 -6.3,0.9 -12.7,1.8 -19,2.7 -1.4,0.2 -2.2,-0.1 -3.1,-1.2 -9.4,-11.5 -18.9,-22.8 -28.1,-34.4 -2.1,-2.3 -4.2,-2.6 -7.1,-2.1 z"
       style="clip-rule:evenodd;fill:#333333;fill-rule:evenodd"
       inkscape:connector-curvature="0" /><path
       id="path11"
       d="m 164.07687,65.480354 c 0,7.6 0,15 0,22.5 -2.8,0 -5.5,0.3 -8.2,-0.3 -8.7,-2.1 -17.4,-4.2 -26.2,-6.3 -0.7,-0.2 -1.4,-0.3 -2.3,-0.5 0,23.199996 0,46.099996 0,68.999996 -1.7,0.5 -17.6,0.5 -19.8,0.1 0,-28.1 0,-56.299996 0,-84.699996 2.1,-0.1 4.2,0 6.3,-0.1 2.1,0 4.1,0 6.2,0 1.2,1.7 2.4,3.4 3.5,5.2 0.6,1 1.4,1.2 2.4,1 6,-1.2 12,-2.4 18,-3.6 4,-0.8 8.1,-1.8 12.2,-2.4 2.7,-0.2 5.3,0.1 7.9,0.1 z"
       style="clip-rule:evenodd;fill:#333333;fill-rule:evenodd"
       inkscape:connector-curvature="0" /><path
       id="path13"
       d="m 92.576869,107.98035 c -0.3,5.7 -0.8,11.4 -2.5,16.9 -4.1,13.1 -13,21.2 -26.1,24.9 -7.9,2.3 -16.1,2.4 -24.2,1.7 -4.4,-0.4 -8.7,-1.3 -12.8,-3 -11.3,-4.5 -18.5,-12.7 -21.8,-24.3 -3,-10.5 -3.1,-21.2 -0.1,-31.799996 3.9,-13.5 13,-22 26.4,-25.9 7.2,-2 14.5,-2.4 21.9,-1.8 4.5,0.4 9,1.1 13.3,2.6 13.8,5 22,14.7 24.7,29.1 0.6,3.899996 0.8,7.799996 1.2,11.599996 z m -20.2,0.1 c 0,-1.3 0.1,-2.6 0,-3.9 -0.3,-4.499996 -1.1,-8.999996 -3,-13.099996 -2.7,-5.7 -7,-9.5 -13.1,-11.1 -4.4,-1.2 -8.8,-1.4 -13.3,-0.8 -9.5,1.2 -15.6,6.4 -18.3,15.5 -2,6.699996 -2.1,13.499996 -1.4,20.399996 0.3,3.4 1.1,6.8 2.5,9.9 2.8,6.3 7.4,10.3 14.1,11.9 3.4,0.8 6.9,0.9 10.4,0.7 11.4,-0.8 17.9,-6.8 20.6,-16.4 1.2,-4.3 1.6,-8.7 1.5,-13.1 z"
       style="clip-rule:evenodd;fill:#333333;fill-rule:evenodd"
       inkscape:connector-curvature="0" /><path
       id="path15"
       d="m -73.723131,65.280354 c 0.8,0 1.6,0 2.3,0 3.2,0 6.3,0 9.6,0 6.6,18 13.2,35.899996 19.8,53.799996 0.1,0 0.3,0 0.4,0 6.9,-17.9 13.7,-35.799996 20.6,-53.699996 6,0 12,0 18.3,0 -11.9,28.4 -23.6,56.599996 -35.4,84.799996 -4,0 -7.9,0 -12,0 -6.3,-17.2 -12.6,-34.5 -19,-51.699996 -0.1,0 -0.3,0 -0.4,0 -6.3,17.199996 -12.6,34.399996 -18.9,51.599996 -4,0 -7.9,0 -11.999999,0 -12.3,-28.1 -24.6,-56.299996 -37,-84.699996 7.8,0 15.3,0 23.1,0 6.8,17.8 13.6,35.599996 20.499999,53.599996 0.9,-0.3 0.9,-1.1 1.1,-1.7 4,-10.8 8,-21.699996 12,-32.499996 2.2,-6.4 4.6,-12.8 7,-19.5 z"
       style="clip-rule:evenodd;fill:#333333;fill-rule:evenodd"
       inkscape:connector-curvature="0" /><path
       id="path17"
       d="m -328.62313,114.38035 c -21.2,0 -42,0 -63.1,0 0.2,1.9 0.3,3.5 0.5,5.2 0.1,0.8 0.3,1.5 0.5,2.3 1.7,7.9 6.8,12.4 14.5,14.1 8.4,1.9 16.8,1.8 25.2,-0.2 5,-1.2 9.9,-2.9 15.1,-4.5 1.3,4.1 2.8,8.5 4.2,13.1 -0.7,0.3 -1.4,0.6 -2,0.9 -11.9,5.1 -24.4,7 -37.3,6.1 -5.9,-0.4 -11.8,-1.4 -17.5,-3.3 -11.8,-3.9 -18.9,-12 -21.9,-23.8 -2,-8.1 -2.2,-16.2 -1.4,-24.499996 0.4,-4.4 1.3,-8.7 2.9,-12.8 4.1,-10.7 11.8,-17.4 22.7,-20.4 7.2,-2 14.5,-2.3 21.9,-1.7 3.9,0.3 7.8,1 11.6,2.2 11.3,3.8 18.2,11.6 21.6,22.8 1.9,6.1 2.5,12.399996 2.5,18.799996 0,1.7 0,3.5 0,5.7 z m -21.2,-13.2 c 0.1,-0.4 0.2,-0.7 0.2,-1.1 0,-3.499996 -0.5,-6.899996 -1.6,-10.299996 -1.7,-4.9 -5.1,-8.1 -10.1,-9.5 -4.7,-1.3 -9.6,-1.6 -14.4,-0.7 -6.7,1.2 -11.4,5 -13.8,11.4 -0.8,2.2 -1.2,4.6 -1.7,6.9 -0.2,1 -0.5,2.1 -0.1,3.299996 13.8,0 27.6,0 41.5,0 z"
       style="clip-rule:evenodd;fill:#0093d6;fill-opacity:1;fill-rule:evenodd"
       inkscape:connector-curvature="0" /><path
       id="path19"
       d="m -142.52313,114.28035 c -20.9,0 -41.6,0 -62.6,0 0,6.5 1.1,12.4 5.7,17 2.2,2.2 5.1,3.3 8,4.2 4.9,1.5 10,1.8 15.2,1.7 8.4,-0.1 16.3,-2.4 24.1,-5.3 0.7,-0.2 1.3,-0.5 2,-0.7 0.1,0 0.2,0 0.6,-0.1 1.3,4.3 2.6,8.7 3.9,13.2 -0.7,0.3 -1.3,0.7 -1.9,0.9 -10.5,4.6 -21.6,6.6 -33,6.2 -6.7,-0.2 -13.4,-0.9 -19.9,-2.8 -12.4,-3.7 -20.3,-11.8 -23.6,-24.2 -3.1,-11.5 -2.9,-23.1 0.4,-34.499996 3.6,-12.4 11.8,-20.3 24.3,-23.5 10.2,-2.6 20.5,-2.7 30.7,-0.1 12.1,3.1 19.9,10.7 23.8,22.5 2.6,7.7 3.1,15.699996 2.8,23.699996 -0.2,0.6 -0.4,1.1 -0.5,1.8 z m -62.5,-13.2 c 2,0.5 40,0.4 41.5,-0.1 0,-3.899996 -0.5,-7.699996 -1.7,-11.399996 -1.4,-4.6 -4.4,-7.4 -8.9,-8.9 -4.6,-1.5 -9.3,-1.8 -14.1,-1.2 -8.7,1.2 -14.1,6.1 -16.1,14.7 -0.5,2.3 -1,4.6 -0.7,6.899996 z"
       style="clip-rule:evenodd;fill:#0093d6;fill-opacity:1;fill-rule:evenodd"
       inkscape:connector-curvature="0" /><path
       id="path21"
       d="m -317.72313,150.08035 c 0,-2.8 -0.1,-5.5 0.1,-8.2 0,-0.7 0.7,-1.4 1.2,-1.9 7.1,-7.5 14.3,-14.9 21.4,-22.4 6.8,-7.2 13.6,-14.4 20.3,-21.599996 2.5,-2.7 4.8,-5.6 7.1,-8.4 1.9,-2.3 3.5,-4.8 4.6,-7.6 0.9,-2.2 1.4,-4.4 1.2,-6.8 -0.4,-5.6 -3.3,-9.2 -8.3,-11.4 -3.1,-1.3 -6.4,-2 -9.8,-2.2 -9,-0.7 -17.8,0.3 -26.5,2.5 -2.6,0.7 -5.1,1.5 -7.6,2.2 -0.5,0.2 -1.1,0.3 -1.8,0.5 -1.4,-5 -2.8,-9.9 -4.3,-14.9 1.8,-0.5 3.3,-1 4.8,-1.5 8,-2.3 16,-4.1 24.2,-5 9.1,-1 18.2,-1.3 27.2,0.7 4.7,1 9.2,2.5 13.4,5 12.2,7.3 14.5,20.3 11,30.8 -1.7,5 -4.2,9.6 -7.2,13.9 -4.4,6.499996 -9.5,12.399996 -15,17.999996 -6.9,7 -13.9,13.9 -20.8,20.9 -0.5,0.5 -0.9,1 -1.7,1.8 15.3,0 30.1,0 45.3,0 0.1,5.3 0,10.5 0.1,15.6 -1.4,0.2 -75.9,0.4 -78.9,0 z"
       style="clip-rule:evenodd;fill:#0093d6;fill-opacity:1;fill-rule:evenodd"
       inkscape:connector-curvature="0" /></g></svg>