<?xml version="1.0" encoding="utf-8"?>
<!-- Generator: Adobe Illustrator 16.0.0, SVG Export Plug-In . SVG Version: 6.00 Build 0)  -->
<!DOCTYPE svg PUBLIC "-//W3C//DTD SVG 1.1//EN" "http://www.w3.org/Graphics/SVG/1.1/DTD/svg11.dtd">
<svg version="1.1" id="Capa_1" xmlns="http://www.w3.org/2000/svg" xmlns:xlink="http://www.w3.org/1999/xlink" x="0px" y="0px"
	 width="152.038px" height="63.206px" viewBox="0 0 152.038 63.206" enable-background="new 0 0 152.038 63.206"
	 xml:space="preserve">
<g>
	<path fill="#3E6EF5" d="M146.805,17.988v7.406c0,3.199-1.376,4.797-4.121,4.797c-1.224,0-2.285-0.492-3.186-1.479
		c-0.906-0.986-1.355-2.07-1.355-3.248c0-1.025,0.391-1.857,1.176-2.498c0.912-0.742,2.24-1.115,3.988-1.115v-3.881
		c-3.248,0-4.924-0.975-5.025-2.922c-0.027-0.178-0.039-0.346-0.039-0.5c0-1.512,0.483-2.547,1.459-3.111
		c0.74-0.463,1.941-0.691,3.605-0.691V6.402c-2.799,0-5.146,0.578-7.044,1.73c-2.257,1.334-3.387,3.271-3.387,5.812
		c0,2.746,1.083,4.67,3.247,5.773c-0.957,0.436-1.736,1.283-2.34,2.539c-0.604,1.258-0.907,2.555-0.907,3.887
		c0,2.568,1.024,4.658,3.073,6.275c1.893,1.514,4.158,2.27,6.794,2.27c2.56,0,4.699-0.744,6.411-2.23
		c1.922-1.693,2.883-4.039,2.883-7.043v-7.428H146.805z"/>
	<linearGradient id="SVGID_1_" gradientUnits="userSpaceOnUse" x1="42.7944" y1="6.6875" x2="99.9634" y2="6.6875">
		<stop  offset="0" style="stop-color:#E6E6E6"/>
		<stop  offset="1" style="stop-color:#333333"/>
	</linearGradient>
	<path fill="url(#SVGID_1_)" d="M96.604,13.377l3.359-1.586C82.713-3.557,58.518-3.898,42.794,10.625l2.327,2.518
		C59.534-0.172,80.303-0.406,96.604,13.377z"/>
	<polygon fill="#3E6EF5" points="131.18,39.23 134.596,39.23 135.815,35.734 132.401,35.734 	"/>
	<path fill="#333333" d="M23.557,19.969c1.074-1.174,2.244-1.746,3.575-1.746h0.428v-3.184h-0.428c-1.456,0-2.855,0.557-4.167,1.656
		l-0.407-1.656h-2.653v16.725h3.652V19.969z"/>
	<path fill="#333333" d="M37.332,31.748c5.298,0,7.983-2.809,7.983-8.348c0-5.549-2.686-8.361-7.983-8.361s-7.984,2.812-7.983,8.379
		C29.58,28.945,32.265,31.748,37.332,31.748z M37.332,18.162c2.914,0,4.33,1.693,4.33,5.178c0,3.566-1.416,5.299-4.33,5.299
		c-2.915,0-4.332-1.732-4.332-5.299C33,19.855,34.417,18.162,37.332,18.162z"/>
	<path fill="#333333" d="M60.848,31.299l0.332-0.078v-3.145l-0.524,0.121c-1.272,0.293-2.562,0.441-3.833,0.441
		c-3.829,0-5.691-1.812-5.691-5.539c0-3.322,1.862-4.938,5.691-4.938c1.271,0,2.559,0.148,3.833,0.443l0.524,0.121V15.58
		l-0.332-0.076c-1.335-0.309-2.791-0.465-4.328-0.465c-6,0-9.042,2.713-9.042,8.061c0,5.748,3.042,8.664,9.042,8.664
		C58.058,31.764,59.513,31.607,60.848,31.299z"/>
	<path fill="#333333" d="M77.295,24.27c0.533-3.309,0.139-5.764-1.167-7.299c-1.094-1.281-2.819-1.932-5.133-1.932
		c-5.328,0-8.03,2.752-8.03,8.18c0,5.67,2.845,8.545,8.453,8.545c2.027,0,3.775-0.156,5.198-0.465l0.337-0.072v-3.143l-0.518,0.111
		c-1.365,0.295-2.747,0.443-4.109,0.443c-3.653,0-5.52-1.312-5.694-4.008h10.605L77.295,24.27z M66.661,21.447
		c0.281-2.26,1.524-3.314,3.881-3.314c1.172,0,2.041,0.289,2.585,0.861c0.511,0.539,0.772,1.361,0.774,2.453H66.661z"/>
	<path fill="#333333" d="M88.053,21.688h-2.268c-2.121,0-2.365-0.963-2.365-1.686c0-1.221,1.34-1.84,3.984-1.84
		c1.636,0,3.333,0.299,5.043,0.885l0.568,0.193V15.9l-0.312-0.09c-1.791-0.512-3.575-0.771-5.299-0.771
		c-4.867,0-7.335,1.67-7.335,4.963c0,4.225,3.107,5.113,5.716,5.113h2.268c1.83,0,2.064,0.9,2.064,1.686
		c0,0.453,0,1.838-3.365,1.838c-1.848,0-3.65-0.297-5.36-0.883l-0.567-0.193v3.34l0.311,0.088c1.793,0.512,3.684,0.773,5.617,0.773
		c4.657,0,7.018-1.67,7.018-4.963C93.77,22.576,90.661,21.688,88.053,21.688z"/>
	<path fill="#333333" d="M103.919,15.039c-5.299,0-7.985,2.812-7.985,8.379c0.234,5.527,2.92,8.33,7.985,8.33
		c5.298,0,7.983-2.809,7.983-8.348C111.903,17.852,109.217,15.039,103.919,15.039z M103.919,28.639
		c-2.916,0-4.332-1.732-4.332-5.299c0-3.484,1.416-5.178,4.332-5.178c2.915,0,4.331,1.693,4.331,5.178
		C108.25,26.906,106.834,28.639,103.919,28.639z"/>
	<path fill="#333333" d="M122.049,21.688h-2.268c-2.12,0-2.365-0.963-2.365-1.686c0-1.221,1.339-1.84,3.984-1.84
		c1.637,0,3.334,0.299,5.044,0.885l0.567,0.193V15.9l-0.311-0.09c-1.793-0.512-3.577-0.771-5.301-0.771
		c-4.867,0-7.334,1.67-7.334,4.963c0,4.225,3.109,5.113,5.715,5.113h2.268c1.831,0,2.066,0.9,2.066,1.686
		c0,0.453,0,1.838-3.365,1.838c-1.848,0-3.65-0.297-5.361-0.883l-0.568-0.193v3.34l0.311,0.088c1.795,0.512,3.686,0.773,5.619,0.773
		c4.656,0,7.018-1.67,7.018-4.963C127.768,22.576,124.659,21.688,122.049,21.688z"/>
	<polygon fill="#333333" points="0,38.121 6.801,38.121 6.801,57.463 10.453,57.463 10.453,38.121 17.252,38.121 17.252,34.998 
		0,34.998 	"/>
	<path fill="#333333" d="M25.935,40.74c-5.33,0-8.03,2.752-8.03,8.18c0,5.668,2.843,8.543,8.452,8.543
		c2.027,0,3.776-0.156,5.198-0.463l0.338-0.072v-3.145l-0.519,0.113c-1.365,0.293-2.746,0.443-4.11,0.443
		c-3.651,0-5.519-1.312-5.693-4.01h10.606l0.058-0.359c0.533-3.309,0.14-5.764-1.169-7.299C29.974,41.389,28.249,40.74,25.935,40.74
		z M21.6,47.146c0.28-2.258,1.523-3.312,3.881-3.312c1.17,0,2.041,0.289,2.585,0.861c0.512,0.537,0.771,1.361,0.774,2.451H21.6z"/>
	<path fill="#333333" d="M44.051,40.74c-6,0-9.042,2.711-9.042,8.059c0,5.748,3.042,8.664,9.042,8.664
		c1.537,0,2.993-0.156,4.327-0.465l0.331-0.076v-3.146l-0.523,0.121c-1.272,0.295-2.562,0.443-3.834,0.443
		c-3.828,0-5.69-1.812-5.69-5.541c0-3.322,1.862-4.936,5.69-4.936c1.271,0,2.56,0.148,3.834,0.443l0.523,0.119v-3.146l-0.331-0.076
		C47.043,40.896,45.588,40.74,44.051,40.74z"/>
	<path fill="#333333" d="M59.87,40.74c-1.849,0-3.708,0.59-5.532,1.756l-0.433-1.756h-2.652v16.723h3.652v-11.77
		c1.312-1.174,2.704-1.77,4.136-1.77c2.108,0,3.092,0.986,3.092,3.107v10.432h3.651V47.076C65.784,42.932,63.74,40.74,59.87,40.74z"
		/>
	<path fill="#333333" d="M76.688,40.74c-5.298,0-7.985,2.812-7.984,8.379c0.232,5.527,2.919,8.328,7.984,8.328
		c5.297,0,7.982-2.809,7.982-8.346C84.67,43.553,81.985,40.74,76.688,40.74z M76.688,54.34c-2.914,0-4.333-1.734-4.333-5.299
		c0-3.484,1.419-5.178,4.333-5.178s4.332,1.693,4.332,5.178C81.02,52.605,79.602,54.34,76.688,54.34z"/>
	<rect x="87.59" y="34.998" fill="#333333" width="3.652" height="22.465"/>
	<path fill="#333333" d="M102.146,40.74c-5.297,0-7.983,2.812-7.983,8.379c0.232,5.527,2.92,8.328,7.983,8.328
		c5.297,0,7.984-2.809,7.984-8.346C110.13,43.553,107.443,40.74,102.146,40.74z M102.146,54.34c-2.913,0-4.331-1.734-4.331-5.299
		c0-3.484,1.418-5.178,4.331-5.178c2.916,0,4.333,1.693,4.333,5.178C106.479,52.605,105.062,54.34,102.146,54.34z"/>
	<path fill="#333333" d="M120.655,40.74c-5.547,0-8.36,2.783-8.36,8.271c0,5.607,2.677,8.451,7.951,8.451
		c1.198,0,2.343-0.188,3.411-0.559v0.129c0,1.309-0.42,3.049-4.044,3.049c-1.89,0-3.604-0.248-5.095-0.734l-0.561-0.184v3.166
		l0.291,0.098c1.548,0.516,3.344,0.777,5.334,0.777c5.128,0,7.728-2.076,7.728-6.172V41.473l-0.337-0.074
		C124.947,40.961,122.822,40.74,120.655,40.74z M123.657,53.529c-0.979,0.438-2.121,0.66-3.395,0.66
		c-2.935,0-4.359-1.705-4.359-5.209c0-3.402,1.516-5.057,4.633-5.057c1.211,0,2.259,0.092,3.121,0.273V53.529z"/>
	<rect x="130.985" y="40.713" fill="#333333" width="3.654" height="16.723"/>
	<path fill="#333333" d="M144.286,40.74c-1.664,0-3.393,0.26-5.137,0.773l-0.307,0.09v3.16l0.549-0.162
		c1.666-0.49,3.312-0.738,4.895-0.738c3.85,0,3.85,1.623,3.85,2.156v0.994c-1.086-0.152-2.332-0.229-3.711-0.229
		c-4.559,0-6.869,1.785-6.869,5.309c0,4.438,3.48,5.369,6.398,5.369c1.801,0,3.409-0.344,4.785-1.021l1.022,1.021h2.026V46.246
		C151.788,42.594,149.263,40.74,144.286,40.74z M148.135,53.305c-1.043,0.688-2.447,1.035-4.182,1.035
		c-2.46,0-2.744-1.309-2.744-2.291c0-0.92,0.333-2.143,3.215-2.143c1.447,0,2.693,0.08,3.711,0.238V53.305z"/>
	<path fill="#333333" d="M16.046,10.959c-1.118-1.164-2.901-1.756-5.299-1.756H1.101V31.67h3.652v-8.557
		c0.818-0.012,1.693-0.02,2.569-0.027c1.387-0.012,2.82-0.023,4.029-0.055c4.288-0.117,5.918-2.766,6.016-5.229l-0.025-2.9
		C17.41,13.254,16.974,11.926,16.046,10.959z M10.821,19.225c-1.301,0.064-2.836,0.07-4.46,0.078
		c-0.533,0.004-1.071,0.006-1.607,0.01v-6.939h5.737c2.057,0,3.016,0.814,3.018,2.568l0.023,1.822
		C13.41,18.695,11.991,19.168,10.821,19.225z"/>
</g>
</svg>
