<?xml version="1.0" encoding="utf-8"?>
<!-- Generator: Adobe Illustrator 16.0.0, SVG Export Plug-In . SVG Version: 6.00 Build 0)  -->
<!DOCTYPE svg PUBLIC "-//W3C//DTD SVG 1.1//EN" "http://www.w3.org/Graphics/SVG/1.1/DTD/svg11.dtd">
<svg version="1.1" id="Capa_1" xmlns="http://www.w3.org/2000/svg" xmlns:xlink="http://www.w3.org/1999/xlink" x="0px" y="0px"
	 width="18.84px" height="18.794px" viewBox="0 0 18.84 18.794" enable-background="new 0 0 18.84 18.794" xml:space="preserve">
<g>
	<path fill="#FFFFFF" d="M18.383,16.113l-4.537-4.537l0.09-0.15c1.824-2.986,1.37-6.777-1.101-9.218C11.412,0.784,9.524,0,7.521,0
		C5.516,0,3.627,0.784,2.205,2.207C0.782,3.629,0,5.516,0,7.521c0,2.005,0.782,3.891,2.205,5.314
		c1.438,1.403,3.332,2.178,5.331,2.178l0,0c1.392,0,2.747-0.383,3.92-1.106l0.149-0.093l4.538,4.54c0.588,0.589,1.652,0.587,2.239,0
		c0.295-0.294,0.457-0.691,0.457-1.12S18.678,16.407,18.383,16.113z M10.908,10.847c-0.896,0.896-2.094,1.389-3.373,1.389
		s-2.479-0.492-3.374-1.389C2.318,9.003,2.318,5.977,4.159,4.101c0.897-0.898,2.097-1.392,3.376-1.392s2.478,0.493,3.373,1.39
		c0.896,0.895,1.39,2.095,1.39,3.374C12.298,8.753,11.806,9.951,10.908,10.847z"/>
</g>
</svg>
