<?xml version="1.0" encoding="utf-8"?>
<!-- Generator: Adobe Illustrator 16.0.0, SVG Export Plug-In . SVG Version: 6.00 Build 0)  -->
<!DOCTYPE svg PUBLIC "-//W3C//DTD SVG 1.1//EN" "http://www.w3.org/Graphics/SVG/1.1/DTD/svg11.dtd">
<svg version="1.1" id="Capa_1" xmlns="http://www.w3.org/2000/svg" xmlns:xlink="http://www.w3.org/1999/xlink" x="0px" y="0px"
	 width="26.036px" height="14.936px" viewBox="0 0 26.036 14.936" enable-background="new 0 0 26.036 14.936" xml:space="preserve">
<g>
	<g>
		<path fill="#FFFFFF" d="M25.278,2.642H9.1V0.757C9.1,0.339,8.76,0,8.342,0L0,4.524c0,0.419,0.34,0.759,0.758,0.759h7.583l0,0
			h16.936c0.419,0,0.758-0.339,0.758-0.759V3.4C26.036,2.979,25.697,2.642,25.278,2.642z"/>
	</g>
	<g>
		<path fill="#FFFFFF" d="M25.278,9.654h-7.583l0,0H0.758C0.34,9.654,0,9.992,0,10.411v1.125c0,0.419,0.34,0.759,0.758,0.759h16.178
			v1.884c0,0.419,0.34,0.758,0.758,0.758l8.342-4.525C26.036,9.992,25.697,9.654,25.278,9.654z"/>
	</g>
</g>
</svg>
