<svg id="Capa_1" data-name="Capa 1" xmlns="http://www.w3.org/2000/svg" viewBox="0 0 60 60"><defs><style>.cls-1{fill:#ff3c00;}</style></defs><title>BANDEJA_QR</title><path class="cls-1" d="M.3,17.07H16.77a.31.31,0,0,0,.3-.3V.3a.31.31,0,0,0-.3-.3H.3A.31.31,0,0,0,0,.3V16.77A.31.31,0,0,0,.3,17.07ZM4.44,5.36a.92.92,0,0,1,.92-.92h6.36a.92.92,0,0,1,.91.92v6.36a.91.91,0,0,1-.91.91H5.36a.92.92,0,0,1-.92-.91Z"/><path class="cls-1" d="M16.77,42.93H.3a.31.31,0,0,0-.3.3V59.7a.31.31,0,0,0,.3.3H16.77a.31.31,0,0,0,.3-.3V43.23A.31.31,0,0,0,16.77,42.93ZM12.63,54.65a.91.91,0,0,1-.91.91H5.36a.92.92,0,0,1-.92-.91V48.29a.92.92,0,0,1,.92-.92h6.36a.92.92,0,0,1,.91.92Z"/><path class="cls-1" d="M59.7,0H43.23a.31.31,0,0,0-.3.3V16.77a.31.31,0,0,0,.3.3H59.7a.31.31,0,0,0,.3-.3V.3A.31.31,0,0,0,59.7,0ZM55.56,11.72a.92.92,0,0,1-.92.91H48.28a.91.91,0,0,1-.91-.91V5.36a.92.92,0,0,1,.91-.92h6.36a.92.92,0,0,1,.92.92Z"/><path class="cls-1" d="M59.67,22.73H55.89a.33.33,0,0,0-.33.33V36.94a1,1,0,0,1-.94.94H43.26a.33.33,0,0,0-.33.33V42a.33.33,0,0,0,.33.33H59.67A.33.33,0,0,0,60,42V23.06A.33.33,0,0,0,59.67,22.73Z"/><path class="cls-1" d="M59.67,48H43.26a.33.33,0,0,0-.33.33V59.67a.33.33,0,0,0,.33.33H47a.33.33,0,0,0,.33-.33V53.36a.94.94,0,0,1,.94-.94h6.31a1,1,0,0,1,.94.94v6.31a.33.33,0,0,0,.33.33h3.78a.33.33,0,0,0,.33-.33V48.31A.33.33,0,0,0,59.67,48Z"/><path class="cls-1" d="M23.06,4.44h8.83a1,1,0,0,1,.94.94V16.74a.33.33,0,0,0,.33.33h3.78a.33.33,0,0,0,.33-.33V.33A.33.33,0,0,0,36.94,0H23.06a.33.33,0,0,0-.33.33V4.11A.33.33,0,0,0,23.06,4.44Z"/><path class="cls-1" d="M42.93,31.89a.33.33,0,0,0,.33.33H47a.33.33,0,0,0,.33-.33V23.06a.33.33,0,0,0-.33-.33H33.16a.33.33,0,0,0-.33.33v8.83a.94.94,0,0,1-.94.94H23.06a.33.33,0,0,0-.33.33V47a.33.33,0,0,0,.33.33h8.83a.94.94,0,0,1,.94.94V59.67a.33.33,0,0,0,.33.33h3.78a.33.33,0,0,0,.33-.33V43.26a.33.33,0,0,0-.33-.33H28.11a.94.94,0,0,1-.94-.94V38.21a.94.94,0,0,1,.94-.94h8.83a.33.33,0,0,0,.33-.33V28.11a.94.94,0,0,1,.94-.94H42a.94.94,0,0,1,.94.94Z"/><rect class="cls-1" x="22.73" y="53.03" width="4.44" height="6.97" rx="0.33"/><rect class="cls-1" x="10.1" y="32.83" width="6.97" height="4.44" rx="0.33"/><path class="cls-1" d="M.33,37.27H4.11a.33.33,0,0,0,.33-.33V28.11a1,1,0,0,1,.94-.94H26.84a.33.33,0,0,0,.33-.33V10.43a.33.33,0,0,0-.33-.33H23.06a.33.33,0,0,0-.33.33V21.79a.94.94,0,0,1-.94.94H.33a.33.33,0,0,0-.33.33V36.94A.33.33,0,0,0,.33,37.27Z"/></svg>