<svg id="Capa_1" data-name="Capa 1" xmlns="http://www.w3.org/2000/svg" viewBox="0 0 64.82 60"><defs><style>.cls-1{fill:#ff3c00;}</style></defs><title>BANDEJA_VERIFICACION_ID</title><path class="cls-1" d="M30.35,9.1a10.11,10.11,0,1,0,0,20.22,10.11,10.11,0,0,0,0-20.22Zm0,16.18a6.15,6.15,0,0,1-6.14-6.14,6.07,6.07,0,1,1,6.14,6.14Z"/><path class="cls-1" d="M9.68,44.05v5.08a1.77,1.77,0,0,0,1.77,1.77H49.13a1.78,1.78,0,0,0,1.77-1.77l0-5.08A13.11,13.11,0,0,0,37.78,31H22.92A13.18,13.18,0,0,0,9.68,44.05Zm37.15,0v2.8H13.72v-2.8a9.14,9.14,0,0,1,9.2-9H37.78A9.06,9.06,0,0,1,46.83,44.05Z"/><path class="cls-1" d="M59.61,27.1l-2.33,2.33a2.26,2.26,0,0,0-.67,1.6V54.3A1.74,1.74,0,0,1,54.87,56H5.7A1.74,1.74,0,0,1,4,54.3V5.7A1.74,1.74,0,0,1,5.7,4H54.87A1.74,1.74,0,0,1,56.61,5.7v5.62a.57.57,0,0,0,1,.4l2.33-2.34a2.24,2.24,0,0,0,.67-1.6V5.7A5.71,5.71,0,0,0,54.87,0H5.7A5.7,5.7,0,0,0,0,5.7V54.3A5.7,5.7,0,0,0,5.7,60H54.87a5.71,5.71,0,0,0,5.71-5.7V27.5A.57.57,0,0,0,59.61,27.1Z"/><path class="cls-1" d="M64.64,15.52l-2.16-2.16a.64.64,0,0,0-.89,0l-9.11,9.12a.62.62,0,0,1-.89,0l-3.36-3.35a.62.62,0,0,0-.89,0l-2.15,2.15a.64.64,0,0,0,0,.89l6.4,6.4a.62.62,0,0,0,.89,0L64.64,16.4A.63.63,0,0,0,64.64,15.52Z"/></svg>