<svg id="Capa_1" data-name="Capa 1" xmlns="http://www.w3.org/2000/svg" viewBox="0 0 50 35.88"><defs><style>.cls-1{fill:#a0a0a0;}</style></defs><title>BANDEJA_DEVOLVERSE</title><path class="cls-1" d="M36.25,8.38H8.54l4.1-4.11A2.5,2.5,0,0,0,9.11.73L.73,9.1a3,3,0,0,0-.31.39.73.73,0,0,0,0,.09c-.06.11-.13.22-.18.33a.83.83,0,0,0,0,.15,2,2,0,0,0-.1.32,2.48,2.48,0,0,0,0,1c0,.1.06.2.09.3s0,.11,0,.17a3.07,3.07,0,0,0,.17.31l.06.12a3.68,3.68,0,0,0,.31.38L9.11,21a2.49,2.49,0,0,0,1.77.73A2.45,2.45,0,0,0,12.64,21a2.5,2.5,0,0,0,0-3.54l-4.1-4.1H36.25a8.75,8.75,0,1,1,0,17.5H25a2.5,2.5,0,0,0,0,5H36.25a13.75,13.75,0,1,0,0-27.5Z"/></svg>