<svg id="Capa_1" data-name="Capa 1" xmlns="http://www.w3.org/2000/svg" viewBox="0 0 39.98 53.63"><defs><style>.cls-1{fill:#a0a0a0;}</style></defs><title>BANDEJA_REFRESCAR</title><path class="cls-1" d="M34.13,12.68A19.8,19.8,0,0,0,20.2,6.83l2.56-2.56A2.5,2.5,0,0,0,19.23.73L12.41,7.55a2.49,2.49,0,0,0,0,3.53l6.82,6.82a2.49,2.49,0,0,0,1.77.73,2.45,2.45,0,0,0,1.76-.73,2.49,2.49,0,0,0,0-3.53l-2.53-2.54A15,15,0,0,1,30.6,37.42,2.5,2.5,0,1,0,34.13,41,20,20,0,0,0,34.13,12.68Z"/><path class="cls-1" d="M20.75,35.73a2.5,2.5,0,0,0-3.53,3.54l2.54,2.54A15,15,0,0,1,9.38,16.21a2.5,2.5,0,0,0-3.53-3.53A20,20,0,0,0,19.78,46.81l-2.56,2.56a2.5,2.5,0,0,0,3.53,3.53l6.82-6.82a2.49,2.49,0,0,0,0-3.53Z"/></svg>