<svg id="Capa_1" data-name="Capa 1" xmlns="http://www.w3.org/2000/svg" viewBox="0 0 69.9 60"><defs><style>.cls-1{fill:#ff3c00;}</style></defs><title>BANDEJA_OTP</title><path class="cls-1" d="M69.56,23.93a10.69,10.69,0,0,0-3.36-5.47,12.55,12.55,0,0,0-1.51-1.12A11.74,11.74,0,0,0,63,16.52a10.83,10.83,0,0,0-13.76,5.35,11,11,0,0,0-.94,3,11.69,11.69,0,0,0-.15,1.87,12.21,12.21,0,0,0,.19,1.81,10.38,10.38,0,0,0,1.63,4l-.9.9-4.62,4.62c-1.77,1.78-3.55,3.55-5.33,5.33l-.15.16h0l0,0-4.2,4.2L32.9,49.72a2.16,2.16,0,0,0,0,3l.82.83q1.78,1.77,3.56,3.56l2.24,2.23A2.18,2.18,0,0,0,41,60a2.11,2.11,0,0,0,1.51-.63,2.15,2.15,0,0,0,.63-1.51,2.2,2.2,0,0,0-.63-1.51l-.82-.83L38.16,52l-.72-.72.75-.75,2.29-2.29,3.32,3.32a2.22,2.22,0,0,0,1.52.63A2.15,2.15,0,0,0,47.46,50a2.22,2.22,0,0,0-.63-1.52l-.6-.6-2.72-2.72,4.62-4.62,4.41-4.41.49-.49A10.79,10.79,0,0,0,65,35.71,10.32,10.32,0,0,0,67.4,33.5a11.18,11.18,0,0,0,1.09-1.56,12.93,12.93,0,0,0,.76-1.65,10.69,10.69,0,0,0,.63-3.16A10.82,10.82,0,0,0,69.56,23.93Zm-5.33,6.69a8.51,8.51,0,0,1-1.2,1.2,8.75,8.75,0,0,1-1.51.88,8.42,8.42,0,0,1-1.62.43,8.53,8.53,0,0,1-1.75,0,8.86,8.86,0,0,1-1.61-.42,9,9,0,0,1-1.53-.9,6.53,6.53,0,0,1-.63-.55c-.2-.2-.38-.42-.56-.64a8.75,8.75,0,0,1-.88-1.51,8.45,8.45,0,0,1-.44-1.62,8.53,8.53,0,0,1,0-1.75,8.89,8.89,0,0,1,.43-1.61,8.36,8.36,0,0,1,.89-1.53A9.72,9.72,0,0,1,55,21.4a9.45,9.45,0,0,1,1.51-.88,9,9,0,0,1,1.62-.43,8.53,8.53,0,0,1,1.75,0,8.14,8.14,0,0,1,1.61.43,8.28,8.28,0,0,1,1.52.89,9,9,0,0,1,1.2,1.19,8.84,8.84,0,0,1,.88,1.52,8.8,8.8,0,0,1,.44,1.62,10.23,10.23,0,0,1,0,1.75,10.07,10.07,0,0,1-.43,1.61A10.07,10.07,0,0,1,64.23,30.62Z"/><path class="cls-1" d="M29.51,55.76H6a1.7,1.7,0,0,1-1.71-1.71V6A1.7,1.7,0,0,1,6,4.24H50A1.71,1.71,0,0,1,51.72,6v7.12A15.28,15.28,0,0,1,56,11.52V6A6,6,0,0,0,50,0H6A6,6,0,0,0,0,6v48.1a6,6,0,0,0,6,6H33.76l-4.08-4Z"/><path class="cls-1" d="M11.2,15.83H44.75a2.12,2.12,0,0,0,0-4.24H11.2a2.12,2.12,0,0,0,0,4.24Z"/><path class="cls-1" d="M44.22,22.45h-33a2.12,2.12,0,0,0,0,4.24H43.63a17.59,17.59,0,0,1,.19-2.41A13.32,13.32,0,0,1,44.22,22.45Z"/><path class="cls-1" d="M11.2,33.31a2.12,2.12,0,0,0,0,4.24H38.64l4.24-4.24Z"/><path class="cls-1" d="M32,44.17H11.2a2.12,2.12,0,0,0,0,4.24H28.36a6.77,6.77,0,0,1,1.33-1.91Z"/></svg>