<svg id="Capa_1" data-name="Capa 1" xmlns="http://www.w3.org/2000/svg" viewBox="0 0 60 60"><defs><style>.cls-1{fill:#ff3c00;}</style></defs><title>BANDEJA_TC</title><path class="cls-1" d="M15.62,0H1.88A1.88,1.88,0,0,0,0,1.88V15.62A1.88,1.88,0,0,0,1.88,17.5H15.62a1.88,1.88,0,0,0,1.88-1.88V1.88A1.88,1.88,0,0,0,15.62,0ZM13.3,12.79a.51.51,0,0,1-.51.51H4.71a.51.51,0,0,1-.51-.51V4.71a.51.51,0,0,1,.51-.51h8.08a.51.51,0,0,1,.51.51Z"/><path class="cls-1" d="M36.87,0H23.13a1.88,1.88,0,0,0-1.88,1.88V15.62a1.88,1.88,0,0,0,1.88,1.88H36.87a1.88,1.88,0,0,0,1.88-1.88V1.88A1.88,1.88,0,0,0,36.87,0ZM34.55,12.79a.51.51,0,0,1-.51.51H26a.51.51,0,0,1-.51-.51V4.71A.51.51,0,0,1,26,4.2H34a.51.51,0,0,1,.51.51Z"/><path class="cls-1" d="M58.12,0H44.38A1.88,1.88,0,0,0,42.5,1.88V15.62a1.88,1.88,0,0,0,1.88,1.88H58.12A1.88,1.88,0,0,0,60,15.62V1.88A1.88,1.88,0,0,0,58.12,0ZM55.8,12.79a.51.51,0,0,1-.51.51H47.21a.51.51,0,0,1-.51-.51V4.71a.51.51,0,0,1,.51-.51h8.08a.51.51,0,0,1,.51.51Z"/><path class="cls-1" d="M15.62,42.5H1.88A1.88,1.88,0,0,0,0,44.38V58.12A1.88,1.88,0,0,0,1.88,60H15.62a1.88,1.88,0,0,0,1.88-1.88V44.38A1.88,1.88,0,0,0,15.62,42.5ZM13.3,55.29a.51.51,0,0,1-.51.51H4.71a.51.51,0,0,1-.51-.51V47.21a.51.51,0,0,1,.51-.51h8.08a.51.51,0,0,1,.51.51Z"/><path class="cls-1" d="M36.87,42.5H23.13a1.88,1.88,0,0,0-1.88,1.88V58.12A1.88,1.88,0,0,0,23.13,60H36.87a1.88,1.88,0,0,0,1.88-1.88V44.38A1.88,1.88,0,0,0,36.87,42.5ZM34.55,55.29a.51.51,0,0,1-.51.51H26a.51.51,0,0,1-.51-.51V47.21A.51.51,0,0,1,26,46.7H34a.51.51,0,0,1,.51.51Z"/><path class="cls-1" d="M58.12,42.5H44.38a1.88,1.88,0,0,0-1.88,1.88V58.12A1.88,1.88,0,0,0,44.38,60H58.12A1.88,1.88,0,0,0,60,58.12V44.38A1.88,1.88,0,0,0,58.12,42.5ZM55.8,55.29a.51.51,0,0,1-.51.51H47.21a.51.51,0,0,1-.51-.51V47.21a.51.51,0,0,1,.51-.51h8.08a.51.51,0,0,1,.51.51Z"/><path class="cls-1" d="M15.62,21.25H1.88A1.88,1.88,0,0,0,0,23.13V36.87a1.88,1.88,0,0,0,1.88,1.88H15.62a1.88,1.88,0,0,0,1.88-1.88V23.13A1.88,1.88,0,0,0,15.62,21.25ZM13.3,34a.51.51,0,0,1-.51.51H4.71A.51.51,0,0,1,4.2,34V26a.51.51,0,0,1,.51-.51h8.08a.51.51,0,0,1,.51.51Z"/><path class="cls-1" d="M36.87,21.25H23.13a1.88,1.88,0,0,0-1.88,1.88V36.87a1.88,1.88,0,0,0,1.88,1.88H36.87a1.88,1.88,0,0,0,1.88-1.88V23.13A1.88,1.88,0,0,0,36.87,21.25ZM34.55,34a.51.51,0,0,1-.51.51H26a.51.51,0,0,1-.51-.51V26a.51.51,0,0,1,.51-.51H34a.51.51,0,0,1,.51.51Z"/><path class="cls-1" d="M58.12,21.25H44.38a1.88,1.88,0,0,0-1.88,1.88V36.87a1.88,1.88,0,0,0,1.88,1.88H58.12A1.88,1.88,0,0,0,60,36.87V23.13A1.88,1.88,0,0,0,58.12,21.25ZM55.8,34a.51.51,0,0,1-.51.51H47.21A.51.51,0,0,1,46.7,34V26a.51.51,0,0,1,.51-.51h8.08a.51.51,0,0,1,.51.51Z"/></svg>