<svg id="Capa_1" data-name="Capa 1" xmlns="http://www.w3.org/2000/svg" viewBox="0 0 60 60"><defs><style>.cls-1{fill:#ff3c00;}</style></defs><title>BANDEJA_TK</title><path class="cls-1" d="M57.86,0H2.14A2.14,2.14,0,0,0,0,2.14V57.86A2.14,2.14,0,0,0,2.14,60H57.86A2.14,2.14,0,0,0,60,57.86V2.14A2.14,2.14,0,0,0,57.86,0ZM55.71,4.29v45H4.29v-45Zm0,51.42H4.29V53.57H55.71Z"/><path class="cls-1" d="M47.2,27.25l-.81-.46.81-.47a1.61,1.61,0,0,0-1.61-2.78l-.8.46v-.92a1.61,1.61,0,1,0-3.21,0V24l-.81-.46a1.6,1.6,0,0,0-1.6,2.78l.8.47-.8.46a1.61,1.61,0,0,0,.8,3,1.53,1.53,0,0,0,.8-.22l.81-.46v.92a1.61,1.61,0,1,0,3.21,0v-.92l.8.46a1.56,1.56,0,0,0,.8.22,1.61,1.61,0,0,0,.81-3Z"/><path class="cls-1" d="M34,27.25l-.8-.46.8-.47a1.6,1.6,0,0,0-1.6-2.78l-.8.46v-.92a1.61,1.61,0,0,0-3.22,0V24l-.8-.46A1.6,1.6,0,0,0,26,26.32l.8.47-.8.46a1.61,1.61,0,0,0,.8,3,1.56,1.56,0,0,0,.8-.22l.8-.46v.92a1.61,1.61,0,0,0,3.22,0v-.92l.8.46a1.56,1.56,0,0,0,.8.22,1.61,1.61,0,0,0,.8-3Z"/><path class="cls-1" d="M20.83,27.25l-.8-.46.8-.47a1.6,1.6,0,0,0-1.6-2.78l-.81.46v-.92a1.61,1.61,0,1,0-3.21,0V24l-.8-.46a1.61,1.61,0,0,0-1.61,2.78l.81.47-.81.46a1.61,1.61,0,0,0,.81,3,1.56,1.56,0,0,0,.8-.22l.8-.46v.92a1.61,1.61,0,1,0,3.21,0v-.92l.81.46a1.53,1.53,0,0,0,.8.22,1.61,1.61,0,0,0,.8-3Z"/></svg>