<svg id="Capa_1" data-name="Capa 1" xmlns="http://www.w3.org/2000/svg" viewBox="0 0 70 70"><defs><style>.cls-1{fill:#ff3c00;}</style></defs><title>MENSAJE_INVALIDO</title><path class="cls-1" d="M35,0A35,35,0,1,0,70,35,35,35,0,0,0,35,0ZM52.4,45.49a1.24,1.24,0,0,1,0,1.75l-5.16,5.17a1.24,1.24,0,0,1-1.75,0L35,41.91,24.51,52.41a1.24,1.24,0,0,1-1.75,0L17.6,47.24a1.24,1.24,0,0,1,0-1.75L28.09,35,17.6,24.5a1.23,1.23,0,0,1,0-1.74l5.16-5.17a1.24,1.24,0,0,1,1.75,0L35,28.09l10.49-10.5a1.24,1.24,0,0,1,1.75,0l5.16,5.17a1.23,1.23,0,0,1,0,1.74L41.91,35Z"/></svg>