<svg id="Capa_1" data-name="Capa 1" xmlns="http://www.w3.org/2000/svg" viewBox="0 0 60 47.3"><defs><style>.cls-1{fill:#ff3c00;}</style></defs><title>MENSAJE_NOTIFICACION_TRANSACCIÓN</title><path class="cls-1" d="M54.18,0H5.82A5.83,5.83,0,0,0,0,5.82V41.48A5.83,5.83,0,0,0,5.82,47.3H54.18A5.83,5.83,0,0,0,60,41.48V5.82A5.83,5.83,0,0,0,54.18,0ZM31.42,22.82a2.28,2.28,0,0,1-2.84,0L7.26,4.21H52.75ZM10.71,30.36a2.11,2.11,0,0,0-.1,3,2.17,2.17,0,0,0,3,.09l10-9.38L25.81,26a6.47,6.47,0,0,0,8.38,0l2.22-1.94,10,9.39a2.12,2.12,0,0,0,1.44.57,2.09,2.09,0,0,0,1.54-.67,2.1,2.1,0,0,0-.1-3L39.6,21.27,55.79,7.16V41.48a1.62,1.62,0,0,1-1.61,1.61H5.82a1.62,1.62,0,0,1-1.61-1.61V7.15L20.4,21.27Z"/></svg>