<svg id="Capa_1" data-name="Capa 1" xmlns="http://www.w3.org/2000/svg" viewBox="0 0 100.11 100.1"><defs><style>.cls-1{fill:#ff3c00;}</style></defs><title>MENU_DESAFILIAR</title><path class="cls-1" d="M90.1,10H48.5L44.8,4.46A10,10,0,0,0,36.47,0H13.58A10,10,0,0,0,5.25,4.46l-4.69,7A3.38,3.38,0,0,0,0,13.35V90.09a10,10,0,0,0,10,10H90.1a10,10,0,0,0,10-10V20A10,10,0,0,0,90.1,10Zm3.33,80.08a3.33,3.33,0,0,1-3.33,3.33H10a3.34,3.34,0,0,1-3.34-3.33V14.36l4.14-6.2a3.32,3.32,0,0,1,2.77-1.49H36.47a3.34,3.34,0,0,1,2.78,1.49l4.69,7a3.33,3.33,0,0,0,2.78,1.48H90.1A3.34,3.34,0,0,1,93.43,20Z"/><path class="cls-1" d="M76.72,39.56H66.21L64.75,30.8a8.6,8.6,0,0,0-8.52-7.24H43.88a8.6,8.6,0,0,0-8.52,7.24L33.9,39.56H23.38a3.33,3.33,0,0,0,0,6.66h2.43L30.14,78.7a8.72,8.72,0,0,0,8.59,7.52H61.39A8.72,8.72,0,0,0,70,78.7L74.3,46.22h2.42a3.33,3.33,0,0,0,0-6.66ZM41.93,31.91a2,2,0,0,1,2-1.69H56.2a2,2,0,0,1,2,1.67l1.28,7.67H40.65ZM63.37,77.83a2,2,0,0,1-2,1.73H38.7a2,2,0,0,1-2-1.75L32.52,46.22H67.59Z"/></svg>