<svg id="Capa_1" data-name="Capa 1" xmlns="http://www.w3.org/2000/svg" viewBox="0 0 100 100"><defs><style>.cls-1{fill:#ff3c00;}</style></defs><title>MENU_BANDEJA</title><path class="cls-1" d="M89.47,26.32H82.89V4A3.81,3.81,0,0,0,79.22,0H21.05a3.82,3.82,0,0,0-3.94,3.68,1.22,1.22,0,0,0,0,.27V26.32H10.53A10.52,10.52,0,0,0,0,36.84V88.16A11.84,11.84,0,0,0,11.84,100H88.16A11.84,11.84,0,0,0,100,88.16V36.84A10.52,10.52,0,0,0,89.47,26.32ZM25,7.9H75V54H65.79a3.81,3.81,0,0,0-4,3.68V68.42H38.16V57.9A3.82,3.82,0,0,0,34.48,54H25ZM7.89,36.84a2.64,2.64,0,0,1,2.64-2.63h6.58V54H7.89ZM92.11,88.16a3.83,3.83,0,0,1-3.68,4H11.84a3.83,3.83,0,0,1-3.95-3.68V61.84H30.26V72.37a3.83,3.83,0,0,0,3.68,3.95H65.79a3.83,3.83,0,0,0,3.95-3.68V61.84H92.11Zm0-34.21H82.89V34.21h6.58a2.64,2.64,0,0,1,2.64,2.63Z"/><path class="cls-1" d="M45.69,45,67.18,23.52a1.12,1.12,0,0,0,0-1.57l-3.81-3.8a1.1,1.1,0,0,0-1.57,0L45.69,34.26a1.12,1.12,0,0,1-1.57,0L38.2,28.33a1.12,1.12,0,0,0-1.57,0l-3.81,3.81a1.12,1.12,0,0,0,0,1.57L44.12,45A1.1,1.1,0,0,0,45.69,45Z"/></svg>