<svg id="Capa_1" data-name="Capa 1" xmlns="http://www.w3.org/2000/svg" viewBox="0 0 70 70"><defs><style>.cls-1{fill:#ff3c00;}</style></defs><title>PANTALLA_USUARIO_SEGURO</title><path class="cls-1" d="M62.46,27H54V17.84A18.48,18.48,0,0,0,35,0,18.49,18.49,0,0,0,16,17.86V27H7.54A7.56,7.56,0,0,0,0,34.54V62.46A7.56,7.56,0,0,0,7.54,70H62.46A7.56,7.56,0,0,0,70,62.46V34.54A7.56,7.56,0,0,0,62.46,27ZM22,27V17.88A12.57,12.57,0,0,1,35,5.94,12.54,12.54,0,0,1,48,17.86V27Zm42.1,7.54V62.46a1.62,1.62,0,0,1-1.61,1.6H7.54a1.6,1.6,0,0,1-1.6-1.6V34.54a1.6,1.6,0,0,1,1.6-1.6H62.46A1.62,1.62,0,0,1,64.07,34.54Z"/><path class="cls-1" d="M43.84,51.47H26.16a3,3,0,1,1,0-5.94H43.84a3,3,0,0,1,0,5.94Z"/></svg>