<svg id="Capa_1" data-name="Capa 1" xmlns="http://www.w3.org/2000/svg" viewBox="0 0 200 200"><defs><style>.cls-1{fill:#ff3c00;}.cls-2{fill:#f0f2f4;}</style></defs><title>PANTALLA_ALERTA_SALIR</title><circle class="cls-1" cx="100" cy="100" r="100"/><path class="cls-2" d="M155.87,126.3,112.53,51.23a14.46,14.46,0,0,0-25,0L44.14,126.3A14.46,14.46,0,0,0,56.65,148h86.7a14.47,14.47,0,0,0,12.52-21.7Zm-7.3,10.26a5.93,5.93,0,0,1-5.22,3H56.65a6,6,0,0,1-5.22-9L94.79,55.44a6,6,0,0,1,10.44,0l43.34,75.08A6,6,0,0,1,148.57,136.56Z"/><path class="cls-2" d="M100.83,110.72a4.22,4.22,0,0,0,4.22-4.21V79.67a4.22,4.22,0,0,0-8.43,0v26.84A4.22,4.22,0,0,0,100.83,110.72Z"/><path class="cls-2" d="M100.83,117.56a5.19,5.19,0,1,0,5.19,5.19A5.2,5.2,0,0,0,100.83,117.56Z"/></svg>