<svg id="Capa_1" data-name="Capa 1" xmlns="http://www.w3.org/2000/svg" viewBox="0 0 70.34 69.99"><defs><style>.cls-1{fill:#ff3c00;}</style></defs><title>PANTALLA_SALIR</title><path class="cls-1" d="M54.28,46.08a2.77,2.77,0,0,0-2.77,2.78V63.6a.85.85,0,0,1-.85.85H6.39a.85.85,0,0,1-.85-.85V6.39a.85.85,0,0,1,.85-.85H50.66a.85.85,0,0,1,.85.85V21.14a2.78,2.78,0,0,0,5.55,0V6.39A6.4,6.4,0,0,0,50.66,0H6.39A6.4,6.4,0,0,0,0,6.39V63.6A6.4,6.4,0,0,0,6.39,70H50.66a6.4,6.4,0,0,0,6.4-6.39V48.86A2.78,2.78,0,0,0,54.28,46.08Z"/><path class="cls-1" d="M69.87,36.53a1.55,1.55,0,0,0,.12-.22,2,2,0,0,0,.14-.25l.09-.29a2,2,0,0,0,.06-.23,2.86,2.86,0,0,0,0-1.09,1.41,1.41,0,0,0-.06-.22l-.09-.3L70,33.68a2.39,2.39,0,0,0-.12-.22,2.72,2.72,0,0,0-.34-.42h0l-7.09-7.1a2.77,2.77,0,0,0-3.92,3.92l2.35,2.36H31.3a2.78,2.78,0,0,0,0,5.55H60.87l-2.35,2.36a2.77,2.77,0,0,0,2,4.73,2.8,2.8,0,0,0,2-.81L69.53,37h0A2.72,2.72,0,0,0,69.87,36.53Z"/></svg>