<svg id="Capa_1" data-name="Capa 1" xmlns="http://www.w3.org/2000/svg" viewBox="0 0 57 36.92"><defs><style>.cls-1{fill:#ff3c00;}</style></defs><title>PANTALLA_VERIFICACION_ID_DEVOLVER</title><path class="cls-1" d="M53.5,15H12l9-9A3.5,3.5,0,0,0,16,1L1,16a3.75,3.75,0,0,0-.44.53,1.29,1.29,0,0,1-.09.16,4.64,4.64,0,0,0-.23.44c0,.08-.05.16-.07.23a3.06,3.06,0,0,0-.13.43,3.11,3.11,0,0,0-.07.69,3.23,3.23,0,0,0,.07.69,2.92,2.92,0,0,0,.13.42,1.55,1.55,0,0,0,.07.23,3,3,0,0,0,.23.44,1.29,1.29,0,0,1,.09.16,3.75,3.75,0,0,0,.44.53l15,15a3.5,3.5,0,0,0,4.95-4.95l-9-9H53.5a3.5,3.5,0,0,0,0-7Z"/></svg>