<svg id="Capa_1" data-name="Capa 1" xmlns="http://www.w3.org/2000/svg" viewBox="0 0 57 36.92"><defs><style>.cls-1{fill:#ff3c00;}</style></defs><title>PANTALLA_VERIFICACION_ID_SEGUIR</title><path class="cls-1" d="M56.41,20.4a1.29,1.29,0,0,1,.09-.16,3,3,0,0,0,.23-.44,1.55,1.55,0,0,0,.07-.23,2.92,2.92,0,0,0,.13-.42,3.23,3.23,0,0,0,.07-.69,3.11,3.11,0,0,0-.07-.69,3.06,3.06,0,0,0-.13-.43c0-.07,0-.15-.07-.23a4.64,4.64,0,0,0-.23-.44,1.29,1.29,0,0,1-.09-.16A3.75,3.75,0,0,0,56,16L41,1a3.5,3.5,0,0,0-5,4.94l9,9H3.5a3.5,3.5,0,0,0,0,7H45.05l-9,9a3.5,3.5,0,1,0,5,4.95L56,20.93A3.75,3.75,0,0,0,56.41,20.4Z"/></svg>